<svg width="50" height="50" viewBox="0 0 50 50" fill="none" xmlns="http://www.w3.org/2000/svg">
<circle cx="25" cy="25" r="25" fill="white"/>
<path d="M24.3863 11.0047C21.8183 11.0357 16.2973 11.4577 13.2093 14.2907C10.9123 16.5667 10.1103 19.9317 10.0163 24.0927C9.93829 28.2387 9.84429 36.0247 17.3493 38.1447V41.3737C17.3493 41.3737 17.3023 42.6657 18.1563 42.9307C19.2083 43.2637 19.8073 42.2697 20.8073 41.2017L22.6723 39.0927C27.8073 39.5197 31.7403 38.5357 32.1933 38.3897C33.2353 38.0567 39.1043 37.3067 40.0633 29.5197C41.0473 21.4777 39.5843 16.4107 36.9433 14.1187H36.9273C36.1303 13.3847 32.9273 11.0507 25.7713 11.0247C25.7713 11.0247 25.2403 10.9887 24.3863 11.0037V11.0047ZM24.4743 13.2657C25.2033 13.2607 25.6463 13.2917 25.6463 13.2917C31.7033 13.3077 34.5943 15.1307 35.2763 15.7447C37.5003 17.6507 38.6463 22.2187 37.8073 28.9327C37.0103 35.4427 32.2503 35.8547 31.3693 36.1357C30.9943 36.2557 27.5303 37.1097 23.1663 36.8287C23.1663 36.8287 19.9163 40.7507 18.9003 41.7607C18.7393 41.9377 18.5513 41.9897 18.4313 41.9637C18.2593 41.9217 18.2073 41.7087 18.2173 41.4167L18.2483 36.0577C11.8833 34.2977 12.2583 27.6567 12.3263 24.1877C12.4043 20.7187 13.0553 17.8807 14.9933 15.9587C17.6023 13.5997 22.2903 13.2817 24.4723 13.2657H24.4743ZM24.9543 16.7337C24.7353 16.7287 24.5533 16.9107 24.5533 17.1297C24.5533 17.3537 24.7353 17.5307 24.9543 17.5307C26.9593 17.4947 28.8923 18.2547 30.3293 19.6507C31.7823 21.0617 32.4903 22.9577 32.5173 25.4367C32.5173 25.6557 32.6943 25.8377 32.9183 25.8377V25.8217C33.1373 25.8217 33.3193 25.6447 33.3193 25.4257C33.4183 23.0667 32.5433 20.7747 30.9023 19.0767C29.3193 17.5297 27.3133 16.7327 24.9543 16.7327V16.7337ZM19.6833 17.6507C19.4023 17.6087 19.1103 17.6667 18.8653 17.8117H18.8443C18.3023 18.1297 17.7973 18.5307 17.3183 19.0667C16.9533 19.4887 16.7553 19.9157 16.7033 20.3267C16.6723 20.5717 16.6933 20.8167 16.7663 21.0507L16.7923 21.0667C17.2033 22.2747 17.7403 23.4367 18.3963 24.5307C19.2403 26.0667 20.2813 27.4887 21.4903 28.7597L21.5263 28.8117L21.5833 28.8537L21.6193 28.8957L21.6613 28.9317C22.9373 30.1457 24.3593 31.1867 25.9013 32.0407C27.6613 32.9987 28.7293 33.4517 29.3703 33.6397V33.6497C29.5583 33.7067 29.7293 33.7327 29.9013 33.7327C30.4483 33.6907 30.9643 33.4727 31.3703 33.1027C31.8913 32.6337 32.3023 32.1187 32.6103 31.5717V31.5617C32.9173 30.9837 32.8133 30.4367 32.3703 30.0667C31.4853 29.2907 30.5213 28.6027 29.5053 28.0097C28.8233 27.6397 28.1303 27.8637 27.8493 28.2387L27.2503 28.9937C26.9433 29.3687 26.3853 29.3167 26.3853 29.3167L26.3693 29.3267C22.2083 28.2637 21.0983 24.0507 21.0983 24.0507C21.0983 24.0507 21.0463 23.4777 21.4313 23.1857L22.1813 22.5817C22.5403 22.2897 22.7903 21.5977 22.4053 20.9147C21.8163 19.8937 21.1293 18.9357 20.3533 18.0497C20.1863 17.8417 19.9473 17.7007 19.6813 17.6487L19.6833 17.6507ZM25.6463 18.8387C25.1153 18.8387 25.1153 19.6407 25.6513 19.6407C26.9843 19.6617 28.2553 20.2137 29.1823 21.1717C30.0263 22.1037 30.4633 23.3437 30.3803 24.5987C30.3853 24.8177 30.5623 24.9947 30.7813 24.9947L30.7973 25.0157C31.0163 25.0157 31.1983 24.8337 31.1983 24.6147C31.2343 23.0257 30.7403 21.6927 29.7713 20.6247C28.7973 19.5567 27.4383 18.9577 25.7033 18.8387C25.6823 18.8387 25.6673 18.8387 25.6463 18.8387V18.8387ZM26.3033 20.9947C25.7563 20.9787 25.7353 21.7967 26.2773 21.8127C27.5953 21.8807 28.2353 22.5467 28.3193 23.9167C28.3243 24.1357 28.5013 24.3077 28.7153 24.3077H28.7313C28.9553 24.2977 29.1323 24.1047 29.1163 23.8807C29.0223 22.0947 28.0483 21.0887 26.3193 20.9957C26.3143 20.9957 26.3093 20.9957 26.3033 20.9957V20.9947Z" fill="#333333"/>
</svg>
