<svg width="30" height="30" viewBox="0 0 30 30" fill="none" xmlns="http://www.w3.org/2000/svg">
<rect width="30" height="30" fill="#4F4F4F"/>
<path d="M15.4134 21.216C13.4934 21.216 11.9514 20.46 10.7874 18.948L11.5074 18.354C12.5634 19.698 13.8714 20.37 15.4314 20.37C16.3074 20.37 17.0454 20.106 17.6454 19.578C18.2454 19.05 18.5454 18.372 18.5454 17.544C18.5454 16.68 18.1794 16.008 17.4474 15.528C16.7274 15.048 15.7854 14.808 14.6214 14.808H13.9374L13.7034 14.286L18.0414 9.282H11.4354V8.4H19.3194V9.066L15.0534 13.944C15.6174 13.98 16.1454 14.076 16.6374 14.232C17.1414 14.376 17.6154 14.586 18.0594 14.862C18.5034 15.126 18.8574 15.492 19.1214 15.96C19.3854 16.416 19.5174 16.944 19.5174 17.544C19.5174 18.612 19.1094 19.494 18.2934 20.19C17.4894 20.874 16.5294 21.216 15.4134 21.216Z" fill="#F2F2F2"/>
</svg>
