<svg width="30" height="30" viewBox="0 0 30 30" fill="none" xmlns="http://www.w3.org/2000/svg">
<rect width="30" height="30" fill="#4F4F4F"/>
<path d="M10.0554 21V20.298L14.7534 16.05C15.7974 15.102 16.5234 14.316 16.9314 13.692C17.3394 13.056 17.5434 12.408 17.5434 11.748C17.5434 10.956 17.2614 10.308 16.6974 9.804C16.1454 9.3 15.4794 9.048 14.6994 9.048C13.9314 9.048 13.2594 9.24 12.6834 9.624C12.1194 10.008 11.5614 10.596 11.0094 11.388L10.3074 10.92C10.9074 10.008 11.5434 9.33 12.2154 8.886C12.8874 8.442 13.7454 8.22 14.7894 8.22C15.8574 8.22 16.7454 8.556 17.4534 9.228C18.1734 9.888 18.5334 10.716 18.5334 11.712C18.5334 12.54 18.2994 13.296 17.8314 13.98C17.3754 14.664 16.5594 15.54 15.3834 16.608L11.5314 20.1H18.6594V21H10.0554Z" fill="#F2F2F2"/>
</svg>
