<svg width="55" height="55" viewBox="0 0 55 55" fill="none" xmlns="http://www.w3.org/2000/svg">
<rect x="1" y="1" width="53" height="53" stroke="#999999" stroke-width="2"/>
<path d="M34.4733 26.6578C34.0792 23.442 31.5412 20.9104 28.3243 20.5244C28.0474 20.4928 27.7688 20.4769 27.49 20.4769C24.6471 20.4812 22.0874 22.1993 21.0063 24.8287C19.9252 27.458 20.5362 30.4798 22.5538 32.4826C23.6267 33.5101 24.2412 34.926 24.2587 36.4115V37.2229H30.7408V36.4073C30.7457 34.95 31.3386 33.5563 32.3851 32.542C33.9658 31.0169 34.739 28.8384 34.4733 26.6581V26.6578H34.4733Z" fill="black"/>
<path d="M27.5 42.625C28.1865 42.6243 28.7983 42.1917 29.0279 41.5446H25.972C26.2016 42.1917 26.8134 42.6243 27.5 42.625Z" fill="black"/>
<path d="M24.799 39.9241C24.7994 40.2223 25.041 40.4639 25.3392 40.4643H29.6606C29.9588 40.4639 30.2003 40.2223 30.2008 39.9241V38.3036H24.799V39.9241V39.9241Z" fill="black"/>
<path d="M27.5 17.2366C28.0967 17.2366 28.5804 16.7529 28.5804 16.1562V13.4554C28.5804 12.8587 28.0967 12.375 27.5 12.375C26.9034 12.375 26.4197 12.8587 26.4197 13.4554V16.1562C26.4197 16.7529 26.9034 17.2366 27.5 17.2366Z" fill="black"/>
<path d="M18.3824 19.9103C18.8099 20.3187 19.4829 20.3187 19.9104 19.9103C20.113 19.7077 20.2269 19.4329 20.2269 19.1464C20.2269 18.8598 20.113 18.585 19.9104 18.3824L18.0004 16.4728C17.7979 16.2701 17.5231 16.1563 17.2366 16.1563C16.9501 16.1563 16.6753 16.2701 16.4728 16.4728C16.2701 16.6753 16.1562 16.9501 16.1562 17.2367C16.1562 17.5232 16.2701 17.7979 16.4728 18.0005L18.3824 19.9103Z" fill="black"/>
<path d="M17.2366 27.5001C17.2366 26.9034 16.7529 26.4197 16.1562 26.4197H13.4554C12.8589 26.4203 12.3756 26.9036 12.375 27.5001C12.3756 28.0965 12.8589 28.5798 13.4554 28.5804H16.1562C16.7529 28.5804 17.2366 28.0967 17.2366 27.5001Z" fill="black"/>
<path d="M19.4268 34.8083C19.0534 34.7085 18.6551 34.8157 18.3824 35.0896L16.4728 36.9995C16.2701 37.202 16.1563 37.4768 16.1563 37.7633C16.1563 38.0499 16.2701 38.3246 16.4728 38.5272C16.9002 38.9355 17.5731 38.9355 18.0005 38.5272L19.9103 36.6176C20.1841 36.3448 20.2914 35.9466 20.1916 35.5732C20.0918 35.1998 19.8002 34.9081 19.4268 34.8083Z" fill="black"/>
<path d="M36.6175 35.0896C36.3447 34.8158 35.9465 34.7085 35.5731 34.8083C35.1997 34.9081 34.9081 35.1997 34.8083 35.5731C34.7085 35.9465 34.8158 36.3447 35.0896 36.6175L36.9995 38.5271C37.4269 38.9354 38.0998 38.9354 38.5272 38.5271C38.7298 38.3245 38.8437 38.0498 38.8437 37.7632C38.8437 37.4767 38.7298 37.2019 38.5272 36.9993L36.6175 35.0896Z" fill="black"/>
<path d="M41.5446 26.4197H38.8438C38.2471 26.4197 37.7634 26.9034 37.7634 27.5001C37.7634 28.0967 38.2471 28.5804 38.8438 28.5804H41.5446C42.1413 28.5804 42.625 28.0967 42.625 27.5001C42.625 26.9034 42.1413 26.4197 41.5446 26.4197Z" fill="black"/>
<path d="M36.6174 19.9103L38.5269 18.0004C38.7998 17.7275 38.9064 17.3298 38.8065 16.957C38.7066 16.5842 38.4155 16.293 38.0427 16.1931C37.6698 16.0932 37.2721 16.1998 36.9992 16.4727L35.0893 18.3823C34.8867 18.5849 34.7728 18.8597 34.7728 19.1463C34.7728 19.4328 34.8867 19.7077 35.0893 19.9103C35.5169 20.3186 36.1899 20.3186 36.6174 19.9103Z" fill="black"/>
</svg>
