<svg width="210" height="52" viewBox="0 0 210 52" fill="none" xmlns="http://www.w3.org/2000/svg">
<line x1="3.50049" y1="50.2236" x2="206.5" y2="50.2236" stroke="#EE3D48" stroke-width="2"/>
<path d="M4.80719 22.448C4.80719 19.6107 5.34852 16.9227 6.43119 14.384C7.51385 11.8453 9.00719 9.60533 10.9112 7.664C12.8525 5.68533 15.0925 4.136 17.6312 3.016C20.1699 1.896 22.8952 1.336 25.8072 1.336C28.6819 1.336 31.3885 1.896 33.9272 3.016C36.4659 4.136 38.7059 5.68533 40.6472 7.664C42.6259 9.60533 44.1565 11.8453 45.2392 14.384C46.3592 16.9227 46.9192 19.6107 46.9192 22.448C46.9192 25.36 46.3592 28.0853 45.2392 30.624C44.1565 33.1627 42.6259 35.4027 40.6472 37.344C38.7059 39.248 36.4659 40.7413 33.9272 41.824C31.3885 42.9067 28.6819 43.448 25.8072 43.448C22.8952 43.448 20.1699 42.9067 17.6312 41.824C15.0925 40.7413 12.8525 39.248 10.9112 37.344C9.00719 35.4027 7.51385 33.1627 6.43119 30.624C5.34852 28.0853 4.80719 25.36 4.80719 22.448ZM13.2072 22.448C13.2072 24.8747 13.7672 27.096 14.8872 29.112C16.0445 31.0907 17.5939 32.6773 19.5352 33.872C21.4765 35.0293 23.6605 35.608 26.0872 35.608C28.4392 35.608 30.5485 35.0293 32.4152 33.872C34.3192 32.6773 35.8125 31.0907 36.8952 29.112C37.9779 27.096 38.5192 24.8747 38.5192 22.448C38.5192 19.9467 37.9592 17.7067 36.8392 15.728C35.7192 13.712 34.2072 12.1253 32.3032 10.968C30.3992 9.77333 28.2525 9.176 25.8632 9.176C23.4739 9.176 21.3272 9.77333 19.4232 10.968C17.5192 12.1253 16.0072 13.712 14.8872 15.728C13.7672 17.7067 13.2072 19.9467 13.2072 22.448ZM69.1827 1.784C74.372 1.784 78.348 3.05333 81.1107 5.592C83.9107 8.09333 85.3107 11.4533 85.3107 15.672C85.3107 18.024 84.8067 20.3387 83.7987 22.616C82.828 24.8933 81.1667 26.704 78.8147 28.048L88.3907 43H78.9267L70.2467 29.896H64.8147V43H56.6947V1.784H69.1827ZM70.5827 22.056C72.2254 22.056 73.4947 21.72 74.3907 21.048C75.324 20.3387 75.9774 19.5173 76.3507 18.584C76.724 17.6133 76.9107 16.736 76.9107 15.952C76.9107 15.504 76.836 14.944 76.6867 14.272C76.5747 13.5627 76.3134 12.8533 75.9027 12.144C75.492 11.4347 74.8574 10.8373 73.9987 10.352C73.1774 9.86667 72.0574 9.624 70.6387 9.624H64.8147V22.056H70.5827ZM96.7653 1.784H104.885V43H96.7653V1.784ZM114.683 22.448C114.683 19.6107 115.224 16.9227 116.307 14.384C117.39 11.8453 118.883 9.60533 120.787 7.664C122.728 5.68533 124.968 4.136 127.507 3.016C130.046 1.896 132.771 1.336 135.683 1.336C138.558 1.336 141.264 1.896 143.803 3.016C146.342 4.136 148.582 5.68533 150.523 7.664C152.502 9.60533 154.032 11.8453 155.115 14.384C156.235 16.9227 156.795 19.6107 156.795 22.448C156.795 25.36 156.235 28.0853 155.115 30.624C154.032 33.1627 152.502 35.4027 150.523 37.344C148.582 39.248 146.342 40.7413 143.803 41.824C141.264 42.9067 138.558 43.448 135.683 43.448C132.771 43.448 130.046 42.9067 127.507 41.824C124.968 40.7413 122.728 39.248 120.787 37.344C118.883 35.4027 117.39 33.1627 116.307 30.624C115.224 28.0853 114.683 25.36 114.683 22.448ZM123.083 22.448C123.083 24.8747 123.643 27.096 124.763 29.112C125.92 31.0907 127.47 32.6773 129.411 33.872C131.352 35.0293 133.536 35.608 135.963 35.608C138.315 35.608 140.424 35.0293 142.291 33.872C144.195 32.6773 145.688 31.0907 146.771 29.112C147.854 27.096 148.395 24.8747 148.395 22.448C148.395 19.9467 147.835 17.7067 146.715 15.728C145.595 13.712 144.083 12.1253 142.179 10.968C140.275 9.77333 138.128 9.176 135.739 9.176C133.35 9.176 131.203 9.77333 129.299 10.968C127.395 12.1253 125.883 13.712 124.763 15.728C123.643 17.7067 123.083 19.9467 123.083 22.448ZM203.475 44.68L174.635 18.64L174.803 43H166.571V0.159997H166.907L195.691 26.592L195.523 1.784H203.699V44.68H203.475Z" fill="#EE3D48"/>
</svg>
