<?xml version="1.0" standalone="no"?>
<!DOCTYPE svg PUBLIC "-//W3C//DTD SVG 20010904//EN"
 "http://www.w3.org/TR/2001/REC-SVG-20010904/DTD/svg10.dtd">
<svg version="1.0" xmlns="http://www.w3.org/2000/svg"
 width="141.000000pt" height="76.000000pt" viewBox="0 0 141.000000 76.000000"
 preserveAspectRatio="xMidYMid meet">
<metadata>
Created by potrace 1.16, written by Peter Selinger 2001-2019
</metadata>
<g transform="translate(0.000000,76.000000) scale(0.100000,-0.100000)"
fill="#000000" stroke="none">
<path d="M587 643 c-64 -64 -115 -118 -112 -121 2 -3 25 14 50 37 54 50 72 55
25 6 -38 -40 -36 -56 3 -24 22 17 27 18 27 5 0 -9 5 -16 10 -16 6 0 10 10 10
21 0 21 1 20 36 -6 34 -26 36 -26 29 -6 -8 26 2 27 30 1 20 -19 21 -19 52 10
17 16 33 26 37 23 3 -3 -3 -12 -14 -20 -29 -21 -25 -38 5 -19 23 15 27 15 52
-1 23 -15 26 -16 21 -2 -8 20 6 46 16 30 4 -6 2 -11 -4 -11 -6 0 -8 -5 -5 -11
4 -6 13 -8 21 -5 8 3 14 0 14 -6 0 -6 3 -8 7 -5 3 4 -4 18 -17 32 -13 14 -19
25 -14 25 6 0 23 -13 39 -30 16 -16 33 -30 39 -30 6 0 -43 54 -109 120 -66 66
-122 120 -125 120 -3 0 -58 -53 -123 -117z"/>
<path d="M307 453 c-29 -33 -31 -68 -4 -98 46 -54 127 -27 127 42 0 20 -8 41
-20 53 -25 25 -81 26 -103 3z"/>
<path d="M790 450 c-24 -24 -26 -67 -4 -98 11 -16 25 -22 54 -22 70 0 100 70
53 123 -22 23 -78 22 -103 -3z"/>
<path d="M280 290 c0 -6 38 -10 93 -10 l93 0 35 -36 c18 -20 73 -72 121 -116
l88 -80 124 116 123 116 112 0 c67 0 111 4 111 10 0 7 -157 10 -450 10 -293 0
-450 -3 -450 -10z"/>
</g>
</svg>
