<svg width="50" height="50" viewBox="0 0 50 50" fill="none" xmlns="http://www.w3.org/2000/svg">
<path fill-rule="evenodd" clip-rule="evenodd" d="M41.3449 11.6551C41.3449 13.3121 40.0016 14.6551 38.3449 14.6551C36.6883 14.6551 35.3449 13.3121 35.3449 11.6551C35.3449 9.99805 36.6883 8.65508 38.3449 8.65508C40.002 8.65508 41.3449 9.99805 41.3449 11.6551ZM25 33.3332C20.3977 33.3332 16.6668 29.6023 16.6668 25C16.6668 20.3977 20.3977 16.6668 25 16.6668C29.6023 16.6668 33.3332 20.3977 33.3332 25C33.3332 29.6023 29.6023 33.3332 25 33.3332ZM25 12.1621C17.9098 12.1621 12.1621 17.9098 12.1621 25C12.1621 32.0902 17.9098 37.8379 25 37.8379C32.0902 37.8379 37.8379 32.0902 37.8379 25C37.8379 17.9098 32.0902 12.1621 25 12.1621ZM25 4.50469C31.6754 4.50469 32.466 4.53008 35.102 4.65039C37.5395 4.76172 38.8633 5.16875 39.7441 5.51133C40.9109 5.96484 41.7437 6.50664 42.6187 7.38164C43.4937 8.25625 44.0355 9.08906 44.4891 10.2562C44.8312 11.1371 45.2387 12.4609 45.35 14.8984C45.4703 17.5348 45.4957 18.3254 45.4957 25.0008C45.4957 31.6762 45.4703 32.4668 45.35 35.1027C45.2387 37.5402 44.8316 38.8641 44.4891 39.7449C44.0355 40.9117 43.4937 41.7445 42.6187 42.6195C41.7441 43.4945 40.9113 44.0363 39.7441 44.4898C38.8633 44.832 37.5395 45.2395 35.102 45.3508C32.466 45.4711 31.6754 45.4965 25 45.4965C18.3242 45.4965 17.5336 45.4711 14.8977 45.3508C12.4602 45.2395 11.1363 44.8324 10.2555 44.4898C9.08867 44.0363 8.25586 43.4945 7.38086 42.6195C6.50625 41.7449 5.96406 40.9121 5.51055 39.7449C5.16836 38.8641 4.76094 37.5402 4.64961 35.1027C4.5293 32.4664 4.50391 31.6758 4.50391 25.0008C4.50391 18.3254 4.5293 17.5348 4.64961 14.8984C4.76094 12.4609 5.16797 11.1371 5.51055 10.2562C5.96406 9.08945 6.50586 8.25664 7.38086 7.38164C8.25547 6.50664 9.08828 5.96484 10.2555 5.51133C11.1363 5.16914 12.4602 4.76172 14.8977 4.65039C17.534 4.53008 18.3246 4.50469 25 4.50469ZM25 0C18.2105 0 17.359 0.0289062 14.6926 0.150391C12.0316 0.271875 10.2141 0.694531 8.62422 1.3125C6.98008 1.95117 5.58594 2.80625 4.19609 4.19609C2.80625 5.58594 1.95117 6.98008 1.3125 8.62422C0.694531 10.2145 0.271875 12.0316 0.150391 14.6926C0.0289062 17.359 0 18.2105 0 25C0 31.7895 0.0289062 32.641 0.150391 35.3074C0.271875 37.9684 0.694531 39.7855 1.3125 41.3758C1.95117 43.0199 2.80625 44.4141 4.19609 45.8039C5.58594 47.1937 6.98008 48.0484 8.62422 48.6875C10.2145 49.3055 12.0316 49.7281 14.6926 49.8496C17.359 49.9711 18.2105 50 25 50C31.7895 50 32.641 49.9711 35.3074 49.8496C37.9684 49.7281 39.7855 49.3055 41.3758 48.6875C43.0199 48.0484 44.4141 47.1937 45.8039 45.8039C47.1937 44.4141 48.0484 43.0199 48.6875 41.3758C49.3055 39.7855 49.7281 37.9684 49.8496 35.3074C49.9711 32.641 50 31.7895 50 25C50 18.2105 49.9711 17.359 49.8496 14.6926C49.7281 12.0316 49.3055 10.2145 48.6875 8.62422C48.0484 6.98008 47.1937 5.58594 45.8039 4.19609C44.4141 2.80625 43.0199 1.95156 41.3758 1.3125C39.7855 0.694531 37.9684 0.271875 35.3074 0.150391C32.641 0.0289062 31.7895 0 25 0Z" fill="url(#paint0_radial)"/>
<defs>
<radialGradient id="paint0_radial" cx="0" cy="0" r="1" gradientUnits="userSpaceOnUse" gradientTransform="translate(7.46527 50.1736) scale(63.8875)">
<stop offset="0.138542" stop-color="#C750F1"/>
<stop offset="0.336458" stop-color="#F99D9D"/>
<stop offset="0.599" stop-color="#444CFE"/>
<stop offset="0.76875" stop-color="#E591E7"/>
</radialGradient>
</defs>
</svg>
