<svg width="40" height="40" viewBox="0 0 40 40" fill="none" xmlns="http://www.w3.org/2000/svg">
<path fill-rule="evenodd" clip-rule="evenodd" d="M33.0759 9.32406C33.0759 10.6497 32.0013 11.7241 30.6759 11.7241C29.3506 11.7241 28.2759 10.6497 28.2759 9.32406C28.2759 7.99844 29.3506 6.92406 30.6759 6.92406C32.0016 6.92406 33.0759 7.99844 33.0759 9.32406ZM20 26.6666C16.3181 26.6666 13.3334 23.6819 13.3334 20C13.3334 16.3181 16.3181 13.3334 20 13.3334C23.6819 13.3334 26.6666 16.3181 26.6666 20C26.6666 23.6819 23.6819 26.6666 20 26.6666ZM20 9.72969C14.3278 9.72969 9.72969 14.3278 9.72969 20C9.72969 25.6722 14.3278 30.2703 20 30.2703C25.6722 30.2703 30.2703 25.6722 30.2703 20C30.2703 14.3278 25.6722 9.72969 20 9.72969ZM20 3.60375C25.3403 3.60375 25.9728 3.62406 28.0816 3.72031C30.0316 3.80937 31.0906 4.135 31.7953 4.40906C32.7288 4.77188 33.395 5.20531 34.095 5.90531C34.795 6.605 35.2284 7.27125 35.5912 8.205C35.865 8.90969 36.1909 9.96875 36.28 11.9187C36.3763 14.0278 36.3966 14.6603 36.3966 20.0006C36.3966 25.3409 36.3763 25.9734 36.28 28.0822C36.1909 30.0322 35.8653 31.0913 35.5912 31.7959C35.2284 32.7294 34.795 33.3956 34.095 34.0956C33.3953 34.7956 32.7291 35.2291 31.7953 35.5919C31.0906 35.8656 30.0316 36.1916 28.0816 36.2806C25.9728 36.3769 25.3403 36.3972 20 36.3972C14.6594 36.3972 14.0269 36.3769 11.9181 36.2806C9.96813 36.1916 8.90906 35.8659 8.20437 35.5919C7.27094 35.2291 6.60469 34.7956 5.90469 34.0956C5.205 33.3959 4.77125 32.7297 4.40844 31.7959C4.13469 31.0913 3.80875 30.0322 3.71969 28.0822C3.62344 25.9731 3.60312 25.3406 3.60312 20.0006C3.60312 14.6603 3.62344 14.0278 3.71969 11.9187C3.80875 9.96875 4.13438 8.90969 4.40844 8.205C4.77125 7.27156 5.20469 6.60531 5.90469 5.90531C6.60438 5.20531 7.27062 4.77188 8.20437 4.40906C8.90906 4.13531 9.96813 3.80937 11.9181 3.72031C14.0272 3.62406 14.6597 3.60375 20 3.60375ZM20 0C14.5684 0 13.8872 0.023125 11.7541 0.120312C9.62531 0.2175 8.17125 0.555625 6.89937 1.05C5.58406 1.56094 4.46875 2.245 3.35687 3.35687C2.245 4.46875 1.56094 5.58406 1.05 6.89937C0.555625 8.17156 0.2175 9.62531 0.120312 11.7541C0.023125 13.8872 0 14.5684 0 20C0 25.4316 0.023125 26.1128 0.120312 28.2459C0.2175 30.3747 0.555625 31.8284 1.05 33.1006C1.56094 34.4159 2.245 35.5313 3.35687 36.6431C4.46875 37.755 5.58406 38.4387 6.89937 38.95C8.17156 39.4444 9.62531 39.7825 11.7541 39.8797C13.8872 39.9769 14.5684 40 20 40C25.4316 40 26.1128 39.9769 28.2459 39.8797C30.3747 39.7825 31.8284 39.4444 33.1006 38.95C34.4159 38.4387 35.5313 37.755 36.6431 36.6431C37.755 35.5313 38.4387 34.4159 38.95 33.1006C39.4444 31.8284 39.7825 30.3747 39.8797 28.2459C39.9769 26.1128 40 25.4316 40 20C40 14.5684 39.9769 13.8872 39.8797 11.7541C39.7825 9.62531 39.4444 8.17156 38.95 6.89937C38.4387 5.58406 37.755 4.46875 36.6431 3.35687C35.5313 2.245 34.4159 1.56125 33.1006 1.05C31.8284 0.555625 30.3747 0.2175 28.2459 0.120312C26.1128 0.023125 25.4316 0 20 0Z" fill="url(#paint0_radial)"/>
<defs>
<radialGradient id="paint0_radial" cx="0" cy="0" r="1" gradientUnits="userSpaceOnUse" gradientTransform="translate(5.97222 40.1389) scale(51.11)">
<stop stop-color="#FFB140"/>
<stop offset="0.2559" stop-color="#FF5445"/>
<stop offset="0.599" stop-color="#FC2B82"/>
<stop offset="1" stop-color="#8E40B7"/>
</radialGradient>
</defs>
</svg>
