<svg width="166" height="39" viewBox="0 0 166 39" fill="none" xmlns="http://www.w3.org/2000/svg">
<path d="M0.571875 19.384C0.571875 16.952 1.03588 14.648 1.96388 12.472C2.89188 10.296 4.17188 8.376 5.80388 6.712C7.46788 5.016 9.38788 3.688 11.5639 2.728C13.7399 1.768 16.0759 1.288 18.5719 1.288C21.0359 1.288 23.3559 1.768 25.5319 2.728C27.7079 3.688 29.6279 5.016 31.2919 6.712C32.9879 8.376 34.2999 10.296 35.2279 12.472C36.1879 14.648 36.6679 16.952 36.6679 19.384C36.6679 21.88 36.1879 24.216 35.2279 26.392C34.2999 28.568 32.9879 30.488 31.2919 32.152C29.6279 33.784 27.7079 35.064 25.5319 35.992C23.3559 36.92 21.0359 37.384 18.5719 37.384C16.0759 37.384 13.7399 36.92 11.5639 35.992C9.38788 35.064 7.46788 33.784 5.80388 32.152C4.17188 30.488 2.89188 28.568 1.96388 26.392C1.03588 24.216 0.571875 21.88 0.571875 19.384ZM7.77188 19.384C7.77188 21.464 8.25188 23.368 9.21188 25.096C10.2039 26.792 11.5319 28.152 13.1959 29.176C14.8599 30.168 16.7319 30.664 18.8119 30.664C20.8279 30.664 22.6359 30.168 24.2359 29.176C25.8679 28.152 27.1479 26.792 28.0759 25.096C29.0039 23.368 29.4679 21.464 29.4679 19.384C29.4679 17.24 28.9879 15.32 28.0279 13.624C27.0679 11.896 25.7719 10.536 24.1399 9.544C22.5079 8.52 20.6679 8.008 18.6199 8.008C16.5719 8.008 14.7319 8.52 13.0999 9.544C11.4679 10.536 10.1719 11.896 9.21188 13.624C8.25188 15.32 7.77188 17.24 7.77188 19.384ZM54.3109 1.672C58.7589 1.672 62.1669 2.76 64.5349 4.936C66.9349 7.08 68.1349 9.96 68.1349 13.576C68.1349 15.592 67.7029 17.576 66.8389 19.528C66.0069 21.48 64.5829 23.032 62.5669 24.184L70.7749 37H62.6629L55.2229 25.768H50.5669V37H43.6069V1.672H54.3109ZM55.5109 19.048C56.9189 19.048 58.0069 18.76 58.7749 18.184C59.5749 17.576 60.1349 16.872 60.4549 16.072C60.7749 15.24 60.9349 14.488 60.9349 13.816C60.9349 13.432 60.8709 12.952 60.7429 12.376C60.6469 11.768 60.4229 11.16 60.0709 10.552C59.7189 9.944 59.1749 9.432 58.4389 9.016C57.7349 8.6 56.7749 8.392 55.5589 8.392H50.5669V19.048H55.5109ZM76.5131 1.672H83.4731V37H76.5131V1.672ZM90.4313 19.384C90.4313 16.952 90.8953 14.648 91.8233 12.472C92.7513 10.296 94.0313 8.376 95.6633 6.712C97.3273 5.016 99.2473 3.688 101.423 2.728C103.599 1.768 105.935 1.288 108.431 1.288C110.895 1.288 113.215 1.768 115.391 2.728C117.567 3.688 119.487 5.016 121.151 6.712C122.847 8.376 124.159 10.296 125.087 12.472C126.047 14.648 126.527 16.952 126.527 19.384C126.527 21.88 126.047 24.216 125.087 26.392C124.159 28.568 122.847 30.488 121.151 32.152C119.487 33.784 117.567 35.064 115.391 35.992C113.215 36.92 110.895 37.384 108.431 37.384C105.935 37.384 103.599 36.92 101.423 35.992C99.2473 35.064 97.3273 33.784 95.6633 32.152C94.0313 30.488 92.7513 28.568 91.8233 26.392C90.8953 24.216 90.4313 21.88 90.4313 19.384ZM97.6313 19.384C97.6313 21.464 98.1113 23.368 99.0713 25.096C100.063 26.792 101.391 28.152 103.055 29.176C104.719 30.168 106.591 30.664 108.671 30.664C110.687 30.664 112.495 30.168 114.095 29.176C115.727 28.152 117.007 26.792 117.935 25.096C118.863 23.368 119.327 21.464 119.327 19.384C119.327 17.24 118.847 15.32 117.887 13.624C116.927 11.896 115.631 10.536 113.999 9.544C112.367 8.52 110.527 8.008 108.479 8.008C106.431 8.008 104.591 8.52 102.959 9.544C101.327 10.536 100.031 11.896 99.0713 13.624C98.1113 15.32 97.6313 17.24 97.6313 19.384ZM165.098 38.44L140.378 16.12L140.522 37H133.466V0.279998H133.754L158.426 22.936L158.282 1.672H165.29V38.44H165.098Z" fill="#EE3D48"/>
</svg>
