<?xml version="1.0" standalone="no"?>
<!DOCTYPE svg PUBLIC "-//W3C//DTD SVG 20010904//EN"
 "http://www.w3.org/TR/2001/REC-SVG-20010904/DTD/svg10.dtd">
<svg version="1.0" xmlns="http://www.w3.org/2000/svg"
 width="700.000000pt" height="700.000000pt" viewBox="0 0 700.000000 700.000000"
 preserveAspectRatio="xMidYMid meet">
<metadata>
Created by potrace 1.11, written by Peter Selinger 2001-2013
</metadata>
<g transform="translate(0.000000,700.000000) scale(0.100000,-0.100000)"
fill="#000000" stroke="none">
<path d="M5519 4558 c-3 -40 -4 -1385 -1 -1395 3 -10 40 -13 138 -13 l133 0
-3 400 c-3 374 -2 398 14 387 9 -7 59 -50 110 -97 52 -47 123 -112 159 -144
115 -104 165 -149 260 -236 52 -47 103 -93 113 -102 48 -42 177 -158 232 -210
34 -31 63 -55 65 -53 3 4 5 1268 2 1383 l-1 32 -134 0 -133 0 2 -405 c1 -223
-1 -404 -5 -403 -6 3 -147 130 -225 203 -11 11 -72 67 -135 125 -177 162 -211
193 -240 220 -167 158 -350 319 -351 308z"/>
<path d="M790 4523 c-246 -31 -462 -197 -561 -432 -27 -64 -32 -83 -46 -166
-29 -170 28 -382 141 -526 199 -254 565 -336 852 -191 327 165 474 543 339
873 -86 213 -292 387 -510 430 -51 11 -171 17 -215 12z m181 -268 c123 -27
263 -160 294 -280 5 -16 10 -37 12 -45 9 -33 10 -150 2 -196 -13 -73 -63 -166
-118 -221 -180 -181 -485 -149 -632 67 -170 248 -39 608 246 675 52 13 138 12
196 0z"/>
<path d="M4448 4525 c-2 -2 -29 -6 -61 -9 -131 -15 -267 -87 -378 -199 -140
-140 -208 -312 -203 -509 2 -108 24 -192 76 -298 76 -155 242 -295 409 -344
167 -48 342 -37 491 33 326 150 491 524 374 846 -84 232 -277 408 -504 461
-58 14 -196 26 -204 19z m195 -285 c194 -73 305 -285 262 -504 -15 -77 -33
-118 -80 -181 -160 -214 -476 -213 -651 2 -60 73 -86 149 -88 253 -1 111 5
144 44 223 94 191 316 281 513 207z"/>
<path d="M1890 3830 l0 -680 133 0 133 0 0 215 c-1 208 0 215 19 216 22 1 146
1 156 0 4 -1 71 -98 149 -216 l143 -215 153 0 c85 0 154 2 154 5 0 3 -24 42
-53 88 -30 45 -85 131 -123 190 -38 59 -84 131 -102 159 -31 48 -32 52 -15 61
36 19 122 116 141 159 117 262 41 528 -183 638 -102 50 -159 58 -445 60 l-260
1 0 -681z m526 415 c47 -8 102 -62 123 -120 44 -121 -13 -245 -125 -273 -41
-11 -253 -13 -255 -3 -1 3 -2 93 -2 200 -2 173 0 194 15 200 19 7 199 4 244
-4z"/>
<path d="M3210 3830 l0 -680 135 0 135 0 0 680 0 680 -135 0 -135 0 0 -680z"/>
<path d="M121 2785 c-4 -5 -7 -17 -7 -25 1 -13 385 -15 3387 -17 l3386 -2 -3
22 c-1 12 -3 24 -3 27 -2 10 -6753 5 -6760 -5z"/>
</g>
</svg>
