<svg width="50" height="50" viewBox="0 0 50 50" fill="none" xmlns="http://www.w3.org/2000/svg">
<path d="M25 50C38.8071 50 50 38.8071 50 25C50 11.1929 38.8071 0 25 0C11.1929 0 0 11.1929 0 25C0 38.8071 11.1929 50 25 50Z" fill="white"/>
<path fill-rule="evenodd" clip-rule="evenodd" d="M24.0557 35.9648H26.0179C26.0179 35.9648 26.6106 35.8997 26.9132 35.5735C27.1917 35.274 27.1828 34.7116 27.1828 34.7116C27.1828 34.7116 27.1445 32.0787 28.3665 31.691C29.571 31.3091 31.1179 34.2357 32.7574 35.3609C33.9972 36.2126 34.9393 36.0258 34.9393 36.0258L39.3232 35.9648C39.3232 35.9648 41.6165 35.8235 40.5291 34.0204C40.44 33.8729 39.8958 32.6866 37.2696 30.2489C34.5209 27.6975 34.889 28.1102 38.2001 23.697C40.2167 21.0093 41.0229 19.3684 40.7711 18.6656C40.5309 17.9962 39.0478 18.1731 39.0478 18.1731L34.1118 18.2039C34.1118 18.2039 33.7459 18.154 33.4745 18.3162C33.2093 18.4753 33.0386 18.8461 33.0386 18.8461C33.0386 18.8461 32.2574 20.9259 31.2155 22.6947C29.0175 26.427 28.1387 26.624 27.7795 26.3922C26.9439 25.8521 27.1525 24.2224 27.1525 23.0646C27.1525 19.4477 27.7011 17.9396 26.0843 17.5492C25.5477 17.4196 25.1529 17.334 23.7807 17.3202C22.0195 17.3019 20.5288 17.3255 19.6848 17.7391C19.1233 18.014 18.6901 18.6268 18.9539 18.662C19.2801 18.7057 20.019 18.8612 20.4107 19.3947C20.9165 20.0827 20.8987 21.6283 20.8987 21.6283C20.8987 21.6283 21.1893 25.886 20.22 26.415C19.5546 26.7777 18.642 26.0371 16.6824 22.651C15.6784 20.9166 14.9203 18.9994 14.9203 18.9994C14.9203 18.9994 14.7742 18.6411 14.5135 18.4494C14.1971 18.2173 13.755 18.1433 13.755 18.1433L9.06452 18.174C9.06452 18.174 8.36039 18.1936 8.10192 18.4998C7.87196 18.7721 8.08364 19.3354 8.08364 19.3354C8.08364 19.3354 11.7558 27.9266 15.9137 32.2561C19.7262 36.2255 24.0557 35.9648 24.0557 35.9648Z" fill="#333333"/>
</svg>
